<svg width="534.1224731445312px" height="92.0375px" xmlns="http://www.w3.org/2000/svg" viewBox="-17.061236572265614 28.981250000000003 534.1224731445312 92.0375" style="background: rgb(251, 252, 255);" preserveAspectRatio="xMidYMid"><defs><linearGradient id="editing-gradient-gradient" x1="0" x2="1" y1="0.5" y2="0.5" gradientUnits="objectBoundingBox"><stop offset="0" stop-color="#3369e7"></stop><stop offset="1" stop-color="#2dde98"></stop></linearGradient></defs><g><g transform="translate(60.18062734603882, 96.39000129699707)"><path d="M4.46-22.40L4.46-22.40L4.46-22.40Q2.90-23.60 2.90-26.15L2.90-26.15L2.90-26.15Q2.90-28.70 4.58-30.04L4.58-30.04L4.58-30.04Q6.26-31.37 9.15-31.37L9.15-31.37L9.15-31.37Q10.99-31.37 15.36-30.73L15.36-30.73L18.49-30.27L18.49-30.27Q20.06-30.08 21.69-30.08L21.69-30.08L21.69-30.08Q23.32-30.08 24.43-30.77L24.43-30.77L24.43-30.77Q26.08-29.30 26.08-27.19L26.08-27.19L26.08-27.19Q26.08-25.07 24.20-23.55L24.20-23.55L24.20-23.55Q22.26-21.94 19.78-21.94L19.78-21.94L19.78-21.94Q18.58-21.94 16.65-22.26L16.65-22.26L16.65-22.26Q14.40-15.18 14.40-10.26L14.40-10.26L14.40-10.26Q14.40-5.34 16.88-2.76L16.88-2.76L16.88-2.76Q15.73-0.69 14.03 0.11L14.03 0.11L14.03 0.11Q12.33 0.92 9.78 0.92L9.78 0.92L9.78 0.92Q7.22 0.92 5.63-0.48L5.63-0.48L5.63-0.48Q4.05-1.89 4.05-4.78L4.05-4.78L4.05-4.78Q4.05-8.14 5.89-13.66L5.89-13.66L5.89-13.66Q7.73-19.14 10.49-23.32L10.49-23.32L10.49-23.32Q9.15-23.46 7.77-23.46L7.77-23.46L7.77-23.46Q4.92-23.46 4.46-22.40ZM38.73-12.93L38.73-12.93L38.73-12.93Q40.39-15.87 40.39-18.86L40.39-18.86L40.39-18.86Q40.39-20.84 38.96-20.84L38.96-20.84L38.96-20.84Q37.86-20.84 36.71-18.95L36.71-18.95L36.71-18.95Q35.51-17.07 35.14-14.63L35.14-14.63L32.75 0L23.23 0.92L27.92-23.46L35.51-24.38L34.68-19.73L34.68-19.73Q36.94-24.38 42.00-24.38L42.00-24.38L42.00-24.38Q44.67-24.38 46.11-23L46.11-23L46.11-23Q47.56-21.62 47.56-18.79L47.56-18.79L47.56-18.79Q47.56-15.96 45.70-14.17L45.70-14.17L45.70-14.17Q43.84-12.37 40.66-12.37L40.66-12.37L40.66-12.37Q39.28-12.37 38.73-12.93ZM59.34-2.53L59.34-2.53L59.34-2.53Q57.91 0.92 53.36 0.92L53.36 0.92L53.36 0.92Q51.01 0.92 49.54-0.69L49.54-0.69L49.54-0.69Q48.30-2.12 48.30-3.54L48.30-3.54L48.30-3.54Q48.30-7.27 50.00-14.54L50.00-14.54L51.70-23.46L61.04-24.38L58.24-9.84L58.24-9.84Q57.45-6.44 57.45-5.24L57.45-5.24L57.45-5.24Q57.45-2.62 59.34-2.53ZM52.53-29.85L52.53-29.85L52.53-29.85Q52.53-31.65 54.03-32.61L54.03-32.61L54.03-32.61Q55.52-33.58 57.68-33.58L57.68-33.58L57.68-33.58Q59.85-33.58 61.16-32.61L61.16-32.61L61.16-32.61Q62.47-31.65 62.47-29.85L62.47-29.85L62.47-29.85Q62.47-28.06 61.02-27.14L61.02-27.14L61.02-27.14Q59.57-26.22 57.41-26.22L57.41-26.22L57.41-26.22Q55.25-26.22 53.89-27.14L53.89-27.14L53.89-27.14Q52.53-28.06 52.53-29.85ZM79.95-22.68L79.95-22.68L79.95-22.68Q81.47-24.38 84.09-24.38L84.09-24.38L84.09-24.38Q85.70-24.38 86.94-23.51L86.94-23.51L86.94-23.51Q88.18-22.63 88.18-21.00L88.18-21.00L88.18-21.00Q88.18-19.37 87.68-17.62L87.68-17.62L87.68-17.62Q87.17-15.87 86.39-14.08L86.39-14.08L86.39-14.08Q84.82-10.58 82.66-7.68L82.66-7.68L82.66-7.68Q79.63-3.50 76.70-1.29L76.70-1.29L76.70-1.29Q73.78 0.92 70.61 0.92L70.61 0.92L70.61 0.92Q68.03 0.92 66.47 0.32L66.47 0.32L66.47 0.32Q66.19-9.34 65.85-12.79L65.85-12.79L65.85-12.79Q65.50-16.24 65.23-18.12L65.23-18.12L65.23-18.12Q64.77-21.80 63.39-22.68L63.39-22.68L63.39-22.68Q64.45-23.60 65.48-23.99L65.48-23.99L65.48-23.99Q66.52-24.38 68.66-24.38L68.66-24.38L68.66-24.38Q70.79-24.38 72.31-22.70L72.31-22.70L72.31-22.70Q73.83-21.02 74.13-18.05L74.13-18.05L74.13-18.05Q74.43-15.09 74.43-11.50L74.43-11.50L74.43-11.50Q74.43-7.91 74.15-3.59L74.15-3.59L74.15-3.59Q75.58-4.60 77.10-7.68L77.10-7.68L77.10-7.68Q79.17-11.96 79.90-17.11L79.90-17.11L79.90-17.11Q80.13-18.68 80.13-20.33L80.13-20.33L80.13-20.33Q80.13-21.99 79.95-22.68ZM100.46-2.53L100.46-2.53L100.46-2.53Q99.04 0.92 94.48 0.92L94.48 0.92L94.48 0.92Q92.14 0.92 90.67-0.69L90.67-0.69L90.67-0.69Q89.42-2.12 89.42-3.54L89.42-3.54L89.42-3.54Q89.42-7.27 91.13-14.54L91.13-14.54L92.83-23.46L102.17-24.38L99.36-9.84L99.36-9.84Q98.58-6.44 98.58-5.24L98.58-5.24L98.58-5.24Q98.58-2.62 100.46-2.53ZM93.66-29.85L93.66-29.85L93.66-29.85Q93.66-31.65 95.15-32.61L95.15-32.61L95.15-32.61Q96.65-33.58 98.81-33.58L98.81-33.58L98.81-33.58Q100.97-33.58 102.28-32.61L102.28-32.61L102.28-32.61Q103.59-31.65 103.59-29.85L103.59-29.85L103.59-29.85Q103.59-28.06 102.14-27.14L102.14-27.14L102.14-27.14Q100.69-26.22 98.53-26.22L98.53-26.22L98.53-26.22Q96.37-26.22 95.01-27.14L95.01-27.14L95.01-27.14Q93.66-28.06 93.66-29.85ZM106.38-1.38L106.38-1.38L106.38-1.38Q105.29-2.58 104.81-4.46L104.81-4.46L104.81-4.46Q104.33-6.35 104.33-9.43L104.33-9.43L104.33-9.43Q104.33-12.51 105.39-15.32L105.39-15.32L105.39-15.32Q106.44-18.12 108.38-20.15L108.38-20.15L108.38-20.15Q112.33-24.38 118.86-24.38L118.86-24.38L118.86-24.38Q121.21-24.38 122.91-23.60L122.91-23.60L130.78-24.38L127.37-6.44L127.37-6.44Q127.24-5.89 127.24-4.88L127.24-4.88L127.24-4.88Q127.24-3.86 127.86-3.22L127.86-3.22L127.86-3.22Q128.48-2.58 129.40-2.48L129.40-2.48L129.40-2.48Q128.94-0.92 127.26 0L127.26 0L127.26 0Q125.58 0.92 123.69 0.92L123.69 0.92L123.69 0.92Q121.81 0.92 120.54 0.21L120.54 0.21L120.54 0.21Q119.28-0.51 118.91-1.70L118.91-1.70L118.91-1.70Q118.17-0.55 116.61 0.18L116.61 0.18L116.61 0.18Q115.05 0.92 112.95 0.92L112.95 0.92L112.95 0.92Q110.86 0.92 109.16 0.37L109.16 0.37L109.16 0.37Q107.46-0.18 106.38-1.38ZM116.08-20.06L116.08-20.06L116.08-20.06Q115.55-19.23 115.09-17.82L115.09-17.82L115.09-17.82Q114.63-16.42 113.87-12.67L113.87-12.67L113.87-12.67Q113.11-8.92 113.11-6.26L113.11-6.26L113.11-6.26Q113.11-3.59 113.53-2.81L113.53-2.81L113.53-2.81Q113.94-2.02 114.68-2.02L114.68-2.02L114.68-2.02Q116.15-2.02 117.23-3.43L117.23-3.43L117.23-3.43Q118.31-4.83 118.73-7.31L118.73-7.31L121.16-20.79L121.16-20.79Q120.20-21.62 119.07-21.62L119.07-21.62L119.07-21.62Q117.94-21.62 117.28-21.25L117.28-21.25L117.28-21.25Q116.61-20.88 116.08-20.06ZM166.75-9.52L166.75-9.52L166.75-9.52Q167.95-8.65 167.95-6.79L167.95-6.79L167.95-6.79Q167.95-4.92 167.14-3.61L167.14-3.61L167.14-3.61Q166.34-2.30 164.77-1.29L164.77-1.29L164.77-1.29Q161.41 0.87 155.55 0.87L155.55 0.87L155.55 0.87Q149.68 0.87 146.49-2.19L146.49-2.19L146.49-2.19Q143.29-5.24 143.29-10.67L143.29-10.67L143.29-10.67Q143.29-18.35 147.29-24.20L147.29-24.20L147.29-24.20Q150.33-28.52 155.76-30.36L155.76-30.36L155.76-30.36Q158.56-31.28 161.32-31.28L161.32-31.28L161.32-31.28Q164.08-31.28 165.78-30.91L165.78-30.91L165.78-30.91Q167.49-30.54 168.77-29.81L168.77-29.81L168.77-29.81Q171.58-28.20 171.58-25.62L171.58-25.62L171.58-25.62Q171.58-23.28 169.37-21.53L169.37-21.53L169.37-21.53Q167.35-19.96 165.69-19.96L165.69-19.96L165.69-19.96Q164.04-19.96 163.35-20.19L163.35-20.19L163.35-20.19Q163.53-21.85 163.53-22.93L163.53-22.93L163.53-22.93Q163.53-24.01 163.48-24.79L163.48-24.79L163.48-24.79Q163.44-25.58 163.21-26.31L163.21-26.31L163.21-26.31Q162.75-28.01 161.34-28.01L161.34-28.01L161.34-28.01Q159.94-28.01 158.54-26.70L158.54-26.70L158.54-26.70Q157.14-25.39 155.94-23.18L155.94-23.18L155.94-23.18Q153.23-18.17 153.23-12.24L153.23-12.24L153.23-12.24Q153.23-9.38 154.84-7.75L154.84-7.75L154.84-7.75Q156.45-6.12 159.90-6.12L159.90-6.12L159.90-6.12Q162.47-6.12 164.91-7.82L164.91-7.82L164.91-7.82Q165.97-8.56 166.75-9.52ZM194.90-5.11L194.90-5.11L194.90-5.11Q194.90-3.08 196.97-2.48L196.97-2.48L196.97-2.48Q196.47-0.78 194.49 0.14L194.49 0.14L194.49 0.14Q192.83 0.92 191.01 0.92L191.01 0.92L191.01 0.92Q189.20 0.92 188.25 0.44L188.25 0.44L188.25 0.44Q187.31-0.05 186.81-0.83L186.81-0.83L186.81-0.83Q185.98-2.02 185.98-4.28L185.98-4.28L185.98-4.28Q185.98-5.61 186.71-9.29L186.71-9.29L187.36-12.79L187.36-12.79Q188.14-16.79 188.14-18.26L188.14-18.26L188.14-18.26Q188.14-20.84 186.71-20.84L186.71-20.84L186.71-20.84Q184.92-20.84 183.77-18.22L183.77-18.22L183.77-18.22Q183.31-17.20 182.99-15.69L182.99-15.69L179.86 0L170.61 0.92L177.10-32.20L186.35-33.12L185.98-31.28L185.98-31.28Q184.69-24.20 183.59-21.80L183.59-21.80L183.59-21.80Q186.16-24.38 190.90-24.38L190.90-24.38L190.90-24.38Q195.91-24.38 196.83-21.07L196.83-21.07L196.83-21.07Q197.16-20.01 197.16-19.09L197.16-19.09L197.16-19.09Q197.16-18.17 197.09-17.46L197.09-17.46L197.09-17.46Q197.02-16.74 196.79-15.46L196.79-15.46L196.19-12.14L195.13-6.95L195.13-6.95Q194.90-5.89 194.90-5.11ZM202.70-1.38L202.70-1.38L202.70-1.38Q201.62-2.58 201.13-4.46L201.13-4.46L201.13-4.46Q200.65-6.35 200.65-9.43L200.65-9.43L200.65-9.43Q200.65-12.51 201.71-15.32L201.71-15.32L201.71-15.32Q202.77-18.12 204.70-20.15L204.70-20.15L204.70-20.15Q208.66-24.38 215.19-24.38L215.19-24.38L215.19-24.38Q217.53-24.38 219.24-23.60L219.24-23.60L227.10-24.38L223.70-6.44L223.70-6.44Q223.56-5.89 223.56-4.88L223.56-4.88L223.56-4.88Q223.56-3.86 224.18-3.22L224.18-3.22L224.18-3.22Q224.80-2.58 225.72-2.48L225.72-2.48L225.72-2.48Q225.26-0.92 223.58 0L223.58 0L223.58 0Q221.90 0.92 220.02 0.92L220.02 0.92L220.02 0.92Q218.13 0.92 216.87 0.21L216.87 0.21L216.87 0.21Q215.60-0.51 215.23-1.70L215.23-1.70L215.23-1.70Q214.50-0.55 212.93 0.18L212.93 0.18L212.93 0.18Q211.37 0.92 209.28 0.92L209.28 0.92L209.28 0.92Q207.18 0.92 205.48 0.37L205.48 0.37L205.48 0.37Q203.78-0.18 202.70-1.38ZM212.41-20.06L212.41-20.06L212.41-20.06Q211.88-19.23 211.42-17.82L211.42-17.82L211.42-17.82Q210.96-16.42 210.20-12.67L210.20-12.67L210.20-12.67Q209.44-8.92 209.44-6.26L209.44-6.26L209.44-6.26Q209.44-3.59 209.85-2.81L209.85-2.81L209.85-2.81Q210.27-2.02 211.00-2.02L211.00-2.02L211.00-2.02Q212.47-2.02 213.56-3.43L213.56-3.43L213.56-3.43Q214.64-4.83 215.05-7.31L215.05-7.31L217.49-20.79L217.49-20.79Q216.52-21.62 215.39-21.62L215.39-21.62L215.39-21.62Q214.27-21.62 213.60-21.25L213.60-21.25L213.60-21.25Q212.93-20.88 212.41-20.06ZM240.58-2.53L240.58-2.53L240.58-2.53Q239.15 0.92 234.60 0.92L234.60 0.92L234.60 0.92Q232.30 0.92 230.83-0.69L230.83-0.69L230.83-0.69Q229.63-2.02 229.63-3.54L229.63-3.54L229.63-3.54Q229.63-6.99 231.24-14.54L231.24-14.54L234.60-32.20L243.94-33.12L239.48-9.84L239.48-9.84Q238.69-6.44 238.69-5.24L238.69-5.24L238.69-5.24Q238.69-2.62 240.58-2.53ZM255.48-2.53L255.48-2.53L255.48-2.53Q254.06 0.92 249.50 0.92L249.50 0.92L249.50 0.92Q247.20 0.92 245.73-0.69L245.73-0.69L245.73-0.69Q244.54-2.02 244.54-3.54L244.54-3.54L244.54-3.54Q244.54-6.99 246.15-14.54L246.15-14.54L249.50-32.20L258.84-33.12L254.38-9.84L254.38-9.84Q253.60-6.44 253.60-5.24L253.60-5.24L253.60-5.24Q253.60-2.62 255.48-2.53ZM278.02-7.77L278.02-7.77L278.02-7.77Q279.17-6.99 279.17-5.27L279.17-5.27L279.17-5.27Q279.17-3.54 278.30-2.44L278.30-2.44L278.30-2.44Q277.43-1.33 276-0.60L276-0.60L276-0.60Q273.06 0.92 269.88 0.92L269.88 0.92L269.88 0.92Q266.71 0.92 264.85 0.23L264.85 0.23L264.85 0.23Q262.98-0.46 261.74-1.75L261.74-1.75L261.74-1.75Q259.30-4.19 259.30-8.65L259.30-8.65L259.30-8.65Q259.30-15.59 263.07-19.83L263.07-19.83L263.07-19.83Q267.12-24.38 274.16-24.38L274.16-24.38L274.16-24.38Q278.53-24.38 280.69-22.54L280.69-22.54L280.69-22.54Q282.30-21.16 282.30-18.91L282.30-18.91L282.30-18.91Q282.30-10.81 268.32-10.81L268.32-10.81L268.32-10.81Q268.13-9.61 268.13-8.60L268.13-8.60L268.13-8.60Q268.13-6.49 269.08-5.68L269.08-5.68L269.08-5.68Q270.02-4.88 271.77-4.88L271.77-4.88L271.77-4.88Q273.52-4.88 275.38-5.68L275.38-5.68L275.38-5.68Q277.24-6.49 278.02-7.77ZM268.64-12.79L268.64-12.79L268.64-12.79Q271.91-12.79 273.79-14.81L273.79-14.81L273.79-14.81Q275.68-16.74 275.68-19.83L275.68-19.83L275.68-19.83Q275.68-20.88 275.29-21.46L275.29-21.46L275.29-21.46Q274.90-22.03 274.11-22.03L274.11-22.03L274.11-22.03Q273.33-22.03 272.67-21.73L272.67-21.73L272.67-21.73Q272.00-21.44 271.31-20.42L271.31-20.42L271.31-20.42Q269.61-18.12 268.64-12.79ZM303.32 0.92L303.32 0.92L303.32 0.92Q297.76 0.92 297.76-3.40L297.76-3.40L297.76-3.40Q297.80-4.60 298.17-6.62L298.17-6.62L299-10.86L299-10.86Q300.24-16.84 300.24-18.17L300.24-18.17L300.24-18.17Q300.24-20.84 298.68-20.84L298.68-20.84L298.68-20.84Q296.06-20.84 294.68-13.98L294.68-13.98L291.96 0L282.72 0.92L287.50-23.51L295.04-24.38L294.31-19.87L294.31-19.87Q296.47-24.38 303.09-24.38L303.09-24.38L303.09-24.38Q306.31-24.38 307.67-23.02L307.67-23.02L307.67-23.02Q309.03-21.67 309.03-18.63L309.03-18.63L309.03-18.63Q309.03-15.78 307.56-9.11L307.56-9.11L307.56-9.11Q306.87-6.12 306.87-4.99L306.87-4.99L306.87-4.99Q306.87-3.86 307.49-3.22L307.49-3.22L307.49-3.22Q308.11-2.58 309.03-2.48L309.03-2.48L309.03-2.48Q308.57-0.92 306.98 0L306.98 0L306.98 0Q305.39 0.92 303.32 0.92ZM315.97-19.23L315.97-19.23L315.97-19.23Q317.54-21.44 319.91-22.91L319.91-22.91L319.91-22.91Q322.28-24.38 325.17-24.38L325.17-24.38L325.17-24.38Q328.07-24.38 329.45-23.46L329.45-23.46L338.47-24.38L335.34-6.72L335.34-6.72Q333.73 2.30 330.33 5.84L330.33 5.84L330.33 5.84Q327.06 9.20 320.71 9.20L320.71 9.20L320.71 9.20Q315.88 9.20 313.12 7.68L313.12 7.68L313.12 7.68Q310.36 6.16 310.36 3.63L310.36 3.63L310.36 3.63Q310.36 1.75 311.79 0.67L311.79 0.67L311.79 0.67Q313.21-0.41 315.42-0.41L315.42-0.41L315.42-0.41Q317.35-0.41 318.83 0.46L318.83 0.46L318.83 0.46Q319.70 0.92 320.11 1.56L320.11 1.56L320.11 1.56Q319.06 2.48 319.06 4.00L319.06 4.00L319.06 4.00Q319.06 5.98 320.90 5.98L320.90 5.98L320.90 5.98Q323.98 5.98 325.73-1.29L325.73-1.29L325.73-1.29Q326.23-3.27 326.65-5.24L326.65-5.24L326.65-5.24Q324.58-2.71 319.88-2.71L319.88-2.71L319.88-2.71Q316.62-2.71 314.73-4.28L314.73-4.28L314.73-4.28Q312.85-5.84 312.85-9.52L312.85-9.52L312.85-9.52Q312.85-11.82 313.63-14.42L313.63-14.42L313.63-14.42Q314.41-17.02 315.97-19.23ZM321.95-9.38L321.95-9.38L321.95-9.38Q321.95-6.26 323.56-6.26L323.56-6.26L323.56-6.26Q324.67-6.26 325.73-7.45L325.73-7.45L325.73-7.45Q326.55-8.42 326.88-9.84L326.88-9.84L329.22-21.67L329.22-21.67Q328.99-21.71 328.76-21.80L328.76-21.80L328.76-21.80Q328.30-21.99 327.70-21.99L327.70-21.99L327.70-21.99Q324.90-21.99 323.24-17.39L323.24-17.39L323.24-17.39Q321.95-13.80 321.95-9.38ZM358.89-7.77L358.89-7.77L358.89-7.77Q360.04-6.99 360.04-5.27L360.04-5.27L360.04-5.27Q360.04-3.54 359.17-2.44L359.17-2.44L359.17-2.44Q358.29-1.33 356.87-0.60L356.87-0.60L356.87-0.60Q353.92 0.92 350.75 0.92L350.75 0.92L350.75 0.92Q347.58 0.92 345.71 0.23L345.71 0.23L345.71 0.23Q343.85-0.46 342.61-1.75L342.61-1.75L342.61-1.75Q340.17-4.19 340.17-8.65L340.17-8.65L340.17-8.65Q340.17-15.59 343.94-19.83L343.94-19.83L343.94-19.83Q347.99-24.38 355.03-24.38L355.03-24.38L355.03-24.38Q359.40-24.38 361.56-22.54L361.56-22.54L361.56-22.54Q363.17-21.16 363.17-18.91L363.17-18.91L363.17-18.91Q363.17-10.81 349.19-10.81L349.19-10.81L349.19-10.81Q349.00-9.61 349.00-8.60L349.00-8.60L349.00-8.60Q349.00-6.49 349.94-5.68L349.94-5.68L349.94-5.68Q350.89-4.88 352.64-4.88L352.64-4.88L352.64-4.88Q354.38-4.88 356.25-5.68L356.25-5.68L356.25-5.68Q358.11-6.49 358.89-7.77ZM349.51-12.79L349.51-12.79L349.51-12.79Q352.77-12.79 354.66-14.81L354.66-14.81L354.66-14.81Q356.55-16.74 356.55-19.83L356.55-19.83L356.55-19.83Q356.55-20.88 356.15-21.46L356.15-21.46L356.15-21.46Q355.76-22.03 354.98-22.03L354.98-22.03L354.98-22.03Q354.20-22.03 353.53-21.73L353.53-21.73L353.53-21.73Q352.87-21.44 352.18-20.42L352.18-20.42L352.18-20.42Q350.47-18.12 349.51-12.79ZM363.49-2.71L363.49-2.71L363.49-2.71Q363.49-4.46 364.80-5.41L364.80-5.41L364.80-5.41Q366.11-6.35 368.05-6.35L368.05-6.35L368.05-6.35Q369.98-6.35 371.20-5.41L371.20-5.41L371.20-5.41Q372.42-4.46 372.42-2.71L372.42-2.71L372.42-2.71Q372.42-0.97 371.06 0L371.06 0L371.06 0Q369.70 0.97 367.77 0.97L367.77 0.97L367.77 0.97Q365.84 0.97 364.66 0L364.66 0L364.66 0Q363.49-0.97 363.49-2.71ZM365.98-11.36L365.98-11.36L365.98-11.36Q365.98-11.68 366.07-12.14L366.07-12.14L369.66-30.64L369.66-30.64Q371.36-31.28 373.38-31.28L373.38-31.28L373.38-31.28Q375.41-31.28 376.46-29.99L376.46-29.99L376.46-29.99Q377.52-28.70 377.52-26.79L377.52-26.79L377.52-26.79Q377.52-24.89 376.79-22.75L376.79-22.75L376.79-22.75Q376.05-20.61 375.15-18.45L375.15-18.45L375.15-18.45Q374.26-16.28 373.50-14.05L373.50-14.05L373.50-14.05Q372.74-11.82 372.69-9.48L372.69-9.48L372.69-9.48Q371.63-8.28 369.79-8.28L369.79-8.28L369.79-8.28Q367.95-8.28 366.96-9.13L366.96-9.13L366.96-9.13Q365.98-9.98 365.98-11.36Z" fill="url(#editing-gradient-gradient)"></path></g></g><style>text {
  font-size: 64px;
  font-family: Arial Black;
  dominant-baseline: central;
  text-anchor: middle;
}</style></svg>